<svg viewBox="0 0 16 16" fill="none" xmlns="http://www.w3.org/2000/svg" id="Paper-Plane--Streamline-Radix" height="16" width="16">
  <desc>
    Paper Plane Streamline Icon: https://streamlinehq.com
  </desc>
  <path fill-rule="evenodd" clip-rule="evenodd" d="M1.2832853333333332 1.1126613333333333C1.0717973333333333 1.0186645333333333 0.8238304000000001 1.0717866666666667 0.6694154666666667 1.2441706666666665s-0.18003519999999998 0.42468266666666665 -0.063424 0.6245866666666666L4.18256 8.000021333333333 0.6059914666666666 14.131306666666667c-0.1166112 0.19989333333333334 -0.09099093333333334 0.45216 0.063424 0.6245333333333334 0.15441493333333334 0.17237333333333332 0.40238186666666664 0.22549333333333332 0.6138698666666667 0.13152L15.683306666666665 8.487392c0.19253333333333333 -0.0856 0.3166933333333333 -0.2765973333333333 0.3166933333333333 -0.4873706666666666 0 -0.21076266666666665 -0.12416 -0.40175999999999995 -0.3166933333333333 -0.48735999999999996l-14.400021333333333 -6.4Zm3.8852800000000003 6.4606933333333325L2.3598293333333333 2.7584 14.153493333333333 8.000021333333333 2.3598293333333333 13.2416l2.8087253333333333 -4.814912H9.6c0.235648 0 0.4266666666666667 -0.19101866666666664 0.4266666666666667 -0.4266666666666667 0 -0.23563733333333334 -0.19101866666666664 -0.4266666666666667 -0.4266666666666667 -0.4266666666666667H5.1685653333333335Z" fill="#000000" stroke-width="1.0667"></path>
</svg>